<svg width="48" height="34" viewBox="0 0 48 34" fill="none" xmlns="http://www.w3.org/2000/svg">
<path d="M46.6646 5.25417C46.1229 3.19583 44.4979 1.57083 42.4396 1.00208C38.7292 1.93715e-07 23.8333 0 23.8333 0C23.8333 0 8.9375 1.93715e-07 5.2 1.00208C3.14167 1.54375 1.54375 3.16875 0.975 5.25417C1.29143e-07 8.99167 0 16.7917 0 16.7917C0 16.7917 -6.45717e-08 24.5917 1.00208 28.3292C1.54375 30.3875 3.16875 32.0125 5.22708 32.5813C8.9375 33.5833 23.8333 33.5833 23.8333 33.5833C23.8333 33.5833 38.7292 33.5833 42.4667 32.5813C44.525 32.0396 46.1229 30.4146 46.6917 28.3292C47.6667 24.5917 47.6667 16.7917 47.6667 16.7917C47.6667 16.7917 47.6667 8.99167 46.6646 5.25417Z" fill="#F9F9F9"/>
<path d="M18.9583 23.8875V9.6958L31.4166 16.7916L18.9583 23.8875Z" fill="#242629"/>
</svg>
